<svg width="28" height="29" viewBox="0 0 28 29" fill="none" xmlns="http://www.w3.org/2000/svg">
<path d="M14 0.5C6.26827 0.5 0 6.76827 0 14.5C0 22.2317 6.26827 28.5 14 28.5C21.7317 28.5 28 22.2317 28 14.5C28 6.76827 21.7317 0.5 14 0.5ZM8.03227 26.1181C6.94286 25.5563 5.93766 24.8444 5.04607 24.0032H22.9544C22.0627 24.8443 21.0575 25.5562 19.9682 26.1181H8.03227ZM3.22933 21.8869C2.77083 21.2201 2.37542 20.512 2.0482 19.7719H25.9523C25.6249 20.512 25.2295 21.22 24.7711 21.8869H3.22933ZM1.32113 17.657C1.14891 16.9625 1.03435 16.255 0.9786 15.5416H27.0219C26.9661 16.255 26.8516 16.9625 26.6793 17.657H1.32113ZM3.05247 7.37913H3.22887L3.3824 6.89847C3.4118 6.8574 3.4398 6.8154 3.47013 6.7748L3.6624 7.37913H4.36333L3.79633 7.82807L4.01333 8.5234L3.44587 8.1104L2.8784 8.53413L3.0954 7.82667L2.87607 7.65353C2.93347 7.5616 2.9932 7.4706 3.05247 7.37913ZM4.01333 14.0301L3.44587 13.6171L2.8784 14.0408L3.0954 13.3333L2.52793 12.8853H3.22887L3.44587 12.2049L3.6624 12.8853H4.36333L3.79633 13.3343L4.01333 14.0301ZM12.6233 3.9454L12.8403 4.6258H13.5413L12.9738 5.07473L13.1908 5.77053L12.6233 5.35707L12.0559 5.7808L12.2729 5.0738L11.7054 4.62533H12.4063L12.6233 3.9454ZM12.4063 10.1325L12.6233 9.45253L12.8403 10.1325H13.5413L12.9738 10.5819L13.1908 11.2772L12.6233 10.8637L12.0559 11.2875L12.2729 10.5805L11.7054 10.132L12.4063 10.1325ZM11.1379 7.82807L11.3549 8.5234L10.7879 8.1104L10.2205 8.53413L10.437 7.82667L9.87 7.37867H10.5709L10.7879 6.69827L11.0045 7.37867H11.7054L11.1379 7.82807ZM11.3549 14.0301L10.7879 13.6171L10.2205 14.0408L10.437 13.3333L9.87 12.8853H10.5709L10.7879 12.2049L11.0045 12.8853H11.7054L11.1379 13.3343L11.3549 14.0301ZM9.303 5.07473L9.52 5.77053L8.95253 5.35707L8.38507 5.7808L8.60207 5.0738L8.0346 4.62533H8.73553L8.95253 3.94493L9.16953 4.62533H9.87047L9.303 5.07473ZM8.73553 10.1325L8.95253 9.45253L9.16953 10.1325H9.87047L9.303 10.5819L9.52 11.2772L8.95253 10.8637L8.38507 11.2875L8.60207 10.5805L8.0346 10.132L8.73553 10.1325ZM7.46713 7.82807L7.68413 8.5234L7.11667 8.1104L6.5492 8.53413L6.7662 7.82667L6.19873 7.37867H6.89967L7.11667 6.69827L7.33367 7.37867H8.0346L7.46713 7.82807ZM6.89967 12.8858L7.11667 12.2054L7.33367 12.8858H8.0346L7.46713 13.3347L7.68413 14.0301L7.11667 13.6171L6.5492 14.0408L6.7662 13.3333L6.19873 12.8853L6.89967 12.8858ZM5.63127 10.5819L5.84827 11.2772L5.2808 10.8637L4.71333 11.2875L4.93033 10.5805L4.36287 10.132H5.0638L5.2808 9.45207L5.4978 10.132H6.19873L5.63127 10.5819ZM14 11.3103H26.6709C26.8436 11.9954 26.9593 12.7024 27.0186 13.4253H14V11.3103ZM14 9.19493V7.08H24.7469C25.2081 7.74663 25.6065 8.45464 25.9369 9.19493H14ZM14 4.96367V2.84827H19.9024C21.0027 3.40778 22.0184 4.11995 22.9194 4.96367H14ZM10.9779 1.78987L11.0045 1.87293H11.7054L11.1379 2.32187L11.3549 3.0172L10.7879 2.60373L10.2205 3.02793L10.437 2.32047L10.0772 2.0358C10.3744 1.94323 10.6748 1.8612 10.9779 1.78987ZM5.4978 4.6258H6.19873L5.63127 5.07473L5.84827 5.77053L5.2808 5.35707L4.71333 5.7808L4.91633 5.12C5.1016 4.94033 5.29293 4.76627 5.48893 4.5978L5.4978 4.6258ZM1.827 10.1325H2.52793L1.96047 10.5819L2.17747 11.2772L1.61 10.8637L1.40933 11.0135C1.512 10.6444 1.6282 10.2818 1.76167 9.9262L1.827 10.1325Z" fill="#FAFAFA"/>
</svg>
