<svg width="28" height="29" viewBox="0 0 28 29" fill="none" xmlns="http://www.w3.org/2000/svg">
<path fill-rule="evenodd" clip-rule="evenodd" d="M14 0.5C6.26827 0.5 0 6.76827 0 14.5C0 22.2317 6.26827 28.5 14 28.5C21.7317 28.5 28 22.2317 28 14.5C28 6.76827 21.7317 0.5 14 0.5ZM3.1976 7.15793H24.8029C26.2304 9.25187 27.0667 11.7798 27.0667 14.5C27.0667 17.2202 26.2304 19.7481 24.8024 21.8421H3.1976C1.7696 19.7481 0.933333 17.2202 0.933333 14.5C0.933333 11.7798 1.7696 9.25187 3.1976 7.15793ZM8.48828 19.061H10.0023V19.8227H8.48828V19.061ZM18.3602 19.061H19.8742V19.8227H18.3602V19.061ZM18.5823 14.9627H18.5795C18.1216 14.9627 17.725 15.0213 17.4855 15.1099L17.4827 15.76C17.718 15.6635 18.1169 15.5918 18.5748 15.5758L18.5823 15.5763V16.5372L18.5814 16.5363L18.5805 16.0188C18.393 16.0474 18.2537 16.0929 18.183 16.15L18.1764 16.1613C18.176 16.1621 18.1763 16.1632 18.1768 16.1644L18.177 16.1651C18.1775 16.1663 18.178 16.1677 18.1778 16.1688C18.1769 16.1715 18.1774 16.1748 18.1778 16.178C18.178 16.1798 18.1783 16.1816 18.1783 16.1833L18.1056 16.6961C18.0672 16.7669 18.2664 16.9399 18.5823 17.1264V19.0591H19.6581V17.6013C19.7767 17.6425 19.8944 17.6983 19.9923 17.7555C19.9447 17.7912 19.9061 17.8375 19.8795 17.8907C19.8529 17.9439 19.839 18.0026 19.8391 18.0621C19.8391 18.1811 19.8939 18.2875 19.9834 18.3588C19.9323 18.2979 19.9966 18.1647 20.1039 18.0907L20.1169 18.082C20.1783 18.0409 20.2207 18.0126 20.2281 17.9744L20.3275 17.4382V17.4377C20.3566 17.3533 20.0669 17.1841 19.6586 17.0336V16.1646L19.6591 16.4219C19.9532 16.4002 20.155 16.323 20.1834 16.2015L20.1808 16.2138L20.4255 15.6494C20.4592 15.4689 20.1372 15.2575 19.6577 15.116V13.7969H19.8536V12.9846H18.3784V13.7969H18.5823V14.9627ZM19.8945 15.8898C19.8212 15.8976 19.7406 15.9063 19.6586 15.9063V15.7708C19.7575 15.8064 19.8452 15.8454 19.9202 15.8871L19.8945 15.8898ZM11.9195 11.9022L12.1145 12.641C12.6339 12.7971 13.3605 12.8932 14.1728 12.8946C14.9838 12.8936 15.7103 12.7971 16.2297 12.641L16.4308 11.89C16.7847 11.7949 17.0898 11.5629 17.3425 11.0693L17.3542 11.0889C17.3542 11.0889 17.8323 10.4538 17.208 9.91098C17.0327 9.75863 16.675 9.65645 16.315 9.65645C16.173 9.65645 16.0352 9.67191 15.9091 9.70051C15.9283 9.72113 15.6555 9.31801 15.0081 9.31801C14.7794 9.31801 14.5703 9.37426 14.4095 9.46801L14.4058 9.44082C14.3934 9.39564 14.368 9.3551 14.3327 9.32426C14.2975 9.29341 14.2539 9.27363 14.2075 9.26738C14.2555 9.26188 14.3014 9.24445 14.3409 9.2167C14.3804 9.18894 14.4124 9.15174 14.4339 9.10848H14.4344L14.4363 9.1066L14.4597 8.99879L14.4578 8.99317C14.4553 8.93366 14.4336 8.87657 14.396 8.83037C14.3585 8.78417 14.307 8.75134 14.2492 8.73676V8.52207H14.4105V8.36973H14.2492V8.21973H14.0889V8.36973H13.9286V8.52207H14.0889V8.73535C13.9656 8.7677 13.8728 8.87082 13.8728 8.99879L13.8953 9.1066L13.8972 9.10848H13.8977C13.9189 9.15157 13.9505 9.18869 13.9897 9.21644C14.029 9.24419 14.0745 9.2617 14.1222 9.26738C14.0242 9.28379 13.9403 9.35082 13.9192 9.44129L13.9155 9.46801C13.7329 9.36716 13.5273 9.31562 13.3188 9.31848C12.685 9.31848 12.3986 9.72113 12.4178 9.70098C12.2842 9.67134 12.1478 9.65656 12.0109 9.65691C10.0478 9.65691 10.8217 10.8738 10.9534 11.0627C11.2197 11.5825 11.5431 11.815 11.9195 11.9022ZM16.315 9.76707C17.2853 9.78113 17.4573 10.405 17.2717 10.7027C16.9548 10.4885 16.5002 10.3324 16.0084 10.2255C16.056 10.085 16.0462 9.93137 15.9813 9.79801C16.0858 9.77832 16.1992 9.76566 16.315 9.76707ZM15.0081 9.4277C15.7098 9.4277 15.9081 9.86551 15.7928 10.181C15.3241 10.0929 14.8502 10.0446 14.4634 10.0272C14.4476 9.87727 14.4352 9.72202 14.4288 9.64209C14.4267 9.61558 14.4252 9.59735 14.4245 9.59035C14.5708 9.49004 14.7775 9.4277 15.0081 9.4277ZM13.3192 9.4277C13.5489 9.4277 13.7552 9.49004 13.9019 9.58988C13.9012 9.59658 13.8999 9.6131 13.898 9.63706C13.8917 9.71544 13.879 9.87334 13.8625 10.0263C13.4898 10.0408 13.0323 10.0863 12.5716 10.1697C12.4816 9.85613 12.6447 9.4277 13.3192 9.4277ZM14.17 12.3611C14.9027 12.3621 15.5678 12.4418 16.0722 12.5725C15.5683 12.7024 14.9031 12.7872 14.17 12.7882C13.4378 12.7877 12.7759 12.7024 12.272 12.5725C12.7764 12.4418 13.4383 12.3621 14.17 12.3611ZM12.0114 9.76707C12.1281 9.76707 12.2406 9.77785 12.3452 9.79848C12.3009 9.85976 12.2718 9.9307 12.2603 10.0054C12.2488 10.0802 12.2552 10.1566 12.2791 10.2283C11.8136 10.331 11.3795 10.4768 11.0669 10.675C10.7275 10.1088 11.1475 9.76707 12.0114 9.76707ZM16.7683 13.3089C16.6642 13.8058 16.6061 14.1325 16.7186 14.6421C16.7847 14.9374 16.518 15.1849 16.2742 14.9097C16.1979 14.8242 16.1511 14.6859 16.1122 14.571L16.1121 14.571C16.0779 14.4699 16.0498 14.3869 16.0131 14.3739C16.428 14.5193 16.4289 13.8396 16.3113 13.5616V13.5625C16.112 13.3249 15.8003 13.1824 15.5439 13.4168C15.4716 13.4858 15.6021 13.5427 15.6928 13.5823C15.7333 13.5999 15.7659 13.6141 15.7689 13.6244C15.8104 13.7636 15.7236 13.7676 15.6414 13.7714C15.5872 13.7739 15.535 13.7763 15.5233 13.8175C15.5146 13.8483 15.5195 13.8807 15.5241 13.9108C15.5366 13.9933 15.5464 14.0583 15.2664 14.0243C14.972 13.9886 14.8525 13.7702 14.8919 13.5429C14.8919 13.5429 14.6425 13.675 14.6209 13.7636C14.5615 14.0071 14.8416 14.1876 15.0353 14.3124C15.1027 14.3558 15.1596 14.3925 15.1881 14.4227C15.0325 14.5985 14.905 14.5947 14.7353 14.5193C14.5816 14.4499 14.7372 14.9444 14.7372 14.9444C15.1625 14.9108 15.3525 14.7407 15.4455 14.6575C15.46 14.6445 15.4722 14.6336 15.4825 14.6257C15.5547 14.8329 15.7267 15.0377 15.9414 15.0391C15.3573 15.0354 15.5931 15.4089 15.5931 15.4089C15.5754 15.6436 15.5024 15.5843 15.4093 15.5088C15.3746 15.4806 15.3372 15.4502 15.2987 15.4319C15.1511 15.3625 14.8534 15.8458 15.3592 15.8871C15.3597 15.8871 15.3652 15.8849 15.3743 15.8814L15.3744 15.8814C15.4213 15.8631 15.5649 15.8074 15.6264 15.8074C15.8429 15.8074 15.825 15.6961 15.8073 15.5864C15.7893 15.4744 15.7715 15.364 16.0047 15.3761C15.9927 15.4041 16.0268 15.4286 16.0758 15.4638C16.1892 15.5452 16.3823 15.6837 16.2667 16.0549C16.2667 16.0549 16.1383 16.3675 16.5283 16.2274C16.4552 16.2541 16.6178 15.6616 16.6216 15.6663C16.4716 15.5224 16.2536 15.2374 16.6141 15.1544C16.9807 15.0703 16.8808 14.7595 16.7871 14.4677C16.7418 14.3268 16.6979 14.1904 16.7088 14.0861C16.7184 13.9902 16.8277 13.8637 16.9257 13.7501C16.9796 13.6877 17.0301 13.6291 17.0589 13.5818C17.0069 13.5766 17.0172 13.3919 17.0795 13.2593C16.9984 13.3638 16.7762 13.3755 16.7683 13.3089ZM14.1006 20.0679L14.2075 20.3135L14.3153 20.0679L14.2084 19.8222L14.1006 20.0679ZM15.7708 18.4282L14.8787 19.3197L15.7708 19.7271V18.4282ZM15.9273 18.4282V19.7271L16.8198 19.3197L15.9273 18.4282ZM16.8822 19.1599V17.3158L15.9606 18.2374L16.8822 19.1599ZM15.9273 17.246V18.0471L16.7294 17.246H15.9273ZM8.13867 17.9749L8.03882 17.4382C8.01023 17.3538 8.29898 17.1846 8.70867 17.0332V15.9063V15.7704C8.60976 15.8064 8.52117 15.8454 8.44664 15.8871C8.45402 15.8879 8.4615 15.8887 8.46907 15.8895C8.54274 15.8974 8.62493 15.9063 8.70867 15.9063L8.70632 16.4224C8.4082 16.4008 8.20523 16.3216 8.18085 16.1964L8.18414 16.2143L7.93992 15.6499C7.90617 15.4694 8.22914 15.258 8.70867 15.116V13.7974H8.51226V12.985H9.98742V13.7974H9.78445V14.9636H9.78726C10.2349 14.9636 10.624 15.0199 10.8649 15.1061V12.9189H14.1851V15.3804L14.1944 15.3794C14.7888 15.3794 15.2702 15.9213 15.2702 16.5897C15.2702 16.5928 15.2698 16.5956 15.2694 16.5986C15.2692 16.6001 15.269 16.6017 15.2688 16.6033H17.5184V18.8107C17.5184 19.6816 16.7721 20.3875 15.8519 20.3875C14.9327 20.3875 14.186 19.6816 14.186 18.8107V17.7996C14.0562 17.7982 13.9324 17.7686 13.8171 17.7199L13.8237 19.7866C13.7191 19.9108 13.601 20.0247 13.4623 20.1147V17.4724C13.244 17.2379 13.122 16.9298 13.1205 16.6094H13.0727L13.0629 20.2975C12.9517 20.3329 12.8372 20.3569 12.7212 20.3693V16.6094H12.3321V20.3683C12.214 20.3547 12.0996 20.3308 11.9904 20.2952L11.981 16.6094H11.591V20.1124C11.4569 20.0257 11.3421 19.9169 11.2404 19.7978V16.6282H10.8644V16.6033H10.8654V15.7539C10.6273 15.6607 10.2401 15.5908 9.79242 15.5758L9.78492 15.5763V16.5368L9.78679 16.0193C9.97335 16.0474 10.113 16.0933 10.1834 16.1505L10.1894 16.1618C10.1912 16.1659 10.1904 16.1707 10.1895 16.1754C10.189 16.1781 10.1885 16.1808 10.1885 16.1833L10.2616 16.6966C10.2991 16.7674 10.1004 16.9404 9.78492 17.1269V19.0596H8.70914V17.6018C8.59311 17.6427 8.48108 17.6942 8.37445 17.7555C8.42129 17.7903 8.4595 17.8355 8.48612 17.8874C8.51273 17.9393 8.52705 17.9967 8.52796 18.0551C8.52886 18.1134 8.51633 18.1712 8.49134 18.224C8.46635 18.2767 8.42956 18.323 8.38382 18.3593C8.43398 18.2983 8.36976 18.1652 8.26242 18.0911L8.25475 18.086C8.19008 18.043 8.14679 18.0141 8.13867 17.9749ZM14.9487 17.4457L15.7409 18.2374L14.8193 19.1604V17.5699C14.7696 17.6093 14.7171 17.6454 14.6618 17.6754V19.39L15.7746 19.9019V19.9029H15.9312V19.9019L17.0435 19.39V17.0885H15.1727C15.1502 17.1438 15.1226 17.1958 15.093 17.2464H15.7737L15.7746 18.0475L15.0452 17.3191C15.0152 17.3636 14.9838 17.4068 14.9487 17.4457ZM14.7387 16.481L14.5404 15.9757L14.3444 16.481L14.479 16.5274L14.4157 16.7027H14.6665L14.6046 16.5274L14.7387 16.481ZM14.3866 17.0861L14.1884 16.5808L13.9929 17.0861L14.1265 17.133L14.0646 17.3079H14.3159L14.2526 17.133L14.3866 17.0861ZM14.0346 16.481L13.8363 15.9757L13.6413 16.481L13.7749 16.5274L13.7126 16.7027H13.9629L13.9005 16.5274L14.0346 16.481ZM11.8357 15.5904H11.591V16.0952H13.2138C13.2729 15.947 13.3607 15.8119 13.4721 15.6977V15.5904H13.2274V14.6116H13.3488V14.1222H13.1196V13.9539H13.2269V13.7093H12.7685V13.9539H12.8759V14.1222H12.6462V13.5869H12.768V13.3422H12.2932V13.5869H12.416V14.1222H12.1863V13.9539H12.2937V13.7093H11.8352V13.9539H11.9426V14.1222H11.7134V14.6116H11.8357V15.5904Z" fill="#FAFAFA"/>
</svg>
