<svg width="91" height="90" viewBox="0 0 91 90" fill="none" xmlns="http://www.w3.org/2000/svg">
<path fill-rule="evenodd" clip-rule="evenodd" d="M8.94181 0.15622C8.41605 0.462542 7.17141 2.3215 6.18234 4.27802C4.00161 8.59126 2.71406 12.688 2.07835 17.3345C1.77367 19.5623 1.73505 24.5567 2.00585 26.7193C3.0516 35.0721 6.21164 41.1156 11.9496 45.7371C13.5662 47.0392 15.1221 48.0272 18.0804 49.6304C21.5342 51.5021 26.8838 54.6006 27.8375 55.2815C29.7136 56.6209 31.4038 58.7332 32.2734 60.8253C32.9137 62.3657 33.3858 65.0107 33.3935 67.1009C33.3981 68.3806 32.4028 68.8442 31.645 67.9152C30.6987 66.7549 27.5931 63.7732 26.4584 62.9357C23.3587 60.6474 20.2964 59.3325 16.7486 58.7668C16.1789 58.6759 14.2145 58.5777 12.3833 58.5486C8.1491 58.4813 6.29791 58.1402 5.20643 57.2259C4.92054 56.9863 4.92809 56.9805 5.4284 57.0577C7.44665 57.3687 9.69974 57.4704 11.9394 57.3516C15.5749 57.1586 17.8892 57.2079 19.3382 57.5094C21.7656 58.0144 24.332 59.106 26.3684 60.4996C27.3461 61.1688 27.9206 61.4876 28.0019 61.4061C28.0342 61.3739 27.8637 60.931 27.6233 60.4223C26.3301 57.6865 23.5014 55.3255 20.0041 54.0627C19.0593 53.7216 18.7106 53.6832 16.0345 53.6262C13.3102 53.5684 12.3999 53.6174 6.83418 54.1218C5.09308 54.2796 3.17649 53.9118 0.866129 52.9763C0.416428 52.7943 0.353982 52.8028 0.15229 53.0728C-0.129902 53.4506 -0.0224707 54.3681 0.495892 56.01C1.40521 58.89 2.91368 61.4272 4.99926 63.584C7.80298 66.4838 10.8332 67.984 14.7771 68.4248C16.8954 68.6615 18.593 68.452 21.6318 67.5788C22.934 67.2045 24.5763 66.823 25.2814 66.7307C28.1837 66.3513 30.4103 67.2667 32.0778 69.5252C32.8085 70.5147 33.2988 70.686 33.7844 70.1211C33.9701 69.9051 34.1988 69.4786 34.2924 69.1733C34.5462 68.3472 34.6547 59.2024 34.4441 56.3938C33.926 49.4828 32.4583 43.6981 29.949 38.6775C27.8852 34.5482 25.56 31.5885 20.9602 27.2352C14.9434 21.5409 13.7777 20.2885 12.1656 17.7877C10.8127 15.6889 9.71972 13.0161 9.71972 11.8064C9.71972 11.6102 10.1728 12.186 10.9198 13.3312C13.68 17.563 17.2613 21.3059 22.2237 25.1449C30.7246 31.7213 35.6892 39.9254 37.2483 49.9732C37.7321 53.0921 37.9034 53.3383 38.4001 51.6293C39.1008 49.2188 39.463 46.1504 39.463 42.6269C39.463 35.2847 37.2659 29.3394 32.6858 24.2892C31.0726 22.5103 28.8161 20.6373 23.3609 16.5493C17.8778 12.4403 15.989 10.8766 14.2141 8.97694C12.1286 6.74489 10.7939 4.41497 10.1002 1.79621C9.76086 0.514657 9.52498 -0.0109319 9.29473 0.000172061C9.24353 0.00268897 9.08475 0.072866 8.94181 0.15622Z" fill="#62A94A"/>
<path fill-rule="evenodd" clip-rule="evenodd" d="M41.7541 4.18635C38.194 4.79638 34.167 6.27226 30.8825 8.17036C27.9919 9.84095 25.5276 11.7312 23.6031 13.7539L22.8329 14.5634L23.8497 15.0633C24.4088 15.3382 24.9045 15.5605 24.9511 15.5573C24.9976 15.5541 25.5699 14.9592 26.2228 14.2354C27.6264 12.6791 28.9749 11.5939 30.984 10.4036C32.1401 9.71856 32.5457 9.54703 32.8889 9.59795C33.4571 9.68218 33.7881 9.98186 33.8199 10.4409C33.8608 11.0299 34.339 10.7938 34.3986 10.1552C34.4636 9.46021 34.847 8.80818 35.2723 8.66938C35.6699 8.53948 35.8871 8.66512 36.2934 9.25954L36.5826 9.68251L35.8656 10.2902C35.1945 10.8589 35.1671 10.9097 35.4383 11.081C35.8258 11.3257 36.3 11.1518 36.9943 10.5102C37.8387 9.72998 37.9467 9.69135 37.6562 10.2726C37.3998 10.7862 37.4006 10.8063 37.6901 11.1176L37.9868 11.4366L38.208 11.0686C38.3296 10.8664 38.4239 10.6257 38.4175 10.5339C38.396 10.2241 39.072 9.53601 39.4216 9.51175C39.9 9.47855 40.5524 9.92496 41.6256 11.0202L42.5378 11.9511L42.047 12.5157C41.7769 12.8263 41.5598 13.1339 41.5643 13.1994C41.5689 13.2648 41.4042 13.4098 41.1982 13.5215C40.8899 13.6888 40.756 13.6867 40.4393 13.5089C40.0949 13.3156 40.0614 13.2287 40.118 12.6736C40.2352 11.5214 40.1847 11.2159 39.8444 11.02C39.5586 10.8554 39.4799 10.8718 39.1573 11.1644C38.9568 11.346 38.4504 11.643 38.0319 11.8243C37.6135 12.0056 36.9199 12.378 36.4909 12.6519C36.0619 12.9255 35.4827 13.2144 35.204 13.2935C34.5412 13.4817 33.8381 14.1102 33.6925 14.6445C33.5223 15.27 33.8357 15.6829 34.7793 16.0758C35.8613 16.5263 35.9931 16.6508 35.7911 17.0308C35.5782 17.4315 35.6279 18.0015 35.8926 18.192C36.1504 18.3776 36.2985 18.2043 36.566 17.4053C36.6667 17.1045 36.9454 16.697 37.1852 16.4996C37.4443 16.2864 37.6128 16.0099 37.5999 15.8186C37.5883 15.6415 37.6732 15.2898 37.789 15.0371C37.9047 14.7844 38.107 14.3201 38.2383 14.0051C38.3883 13.6458 38.5814 13.4252 38.7568 13.413C38.9105 13.4024 39.4309 13.7076 39.9134 14.0912C40.7546 14.7601 40.8081 14.78 41.218 14.5757C41.7737 14.2987 42.0477 14.4855 42.323 15.3285C42.4762 15.7978 42.7421 16.1244 43.3929 16.6431C44.2071 17.292 44.256 17.3658 44.209 17.8769C44.1647 18.3595 44.2202 18.4692 44.7018 18.8531C45.2296 19.2737 45.4336 19.8066 45.1459 20.0133C45.0679 20.0695 44.7841 20.062 44.5154 19.9968C44.2466 19.9316 43.8333 19.8527 43.597 19.8213C43.1956 19.7682 43.1697 19.7269 43.2038 19.1937L43.2404 18.6231L42.363 19.0395C41.4042 19.4946 41.2069 19.6719 41.0917 20.1827C41.0295 20.4585 41.0928 20.545 41.4321 20.648C41.6615 20.7175 42.0118 20.7433 42.2107 20.7053C42.7237 20.6073 42.79 20.9344 42.315 21.2206C41.6427 21.6256 41.0666 21.7291 40.5071 21.5452C39.7701 21.3032 39.7909 21.2906 37.4381 23.408L36.3037 24.429L37.2909 25.7835C39.8194 29.2528 41.1263 32.7701 41.7698 37.8381L42.0431 39.9898L42.746 40.7221C43.1326 41.125 43.8577 41.716 44.3571 42.0355C45.1887 42.5675 45.339 42.6114 46.1393 42.5558C47.6984 42.4476 48.3762 42.9378 48.9839 44.6126C49.3413 45.5978 49.7153 45.8663 50.6409 45.802C51.153 45.7665 51.4636 45.8484 51.9273 46.1416C52.6429 46.5937 53.4748 46.7897 54.4094 46.7258C54.8072 46.6988 55.324 46.7905 55.684 46.9522C56.0169 47.1017 56.5522 47.3354 56.8733 47.4716C57.5869 47.7743 58.0065 48.4856 57.8252 49.0853C57.7596 49.302 57.3553 50.0172 56.9265 50.6746C55.8982 52.2515 55.9203 52.1984 55.8719 53.2063C55.8176 54.3377 55.0191 56.259 54.4274 56.6822C54.1946 56.8487 53.5111 57.1885 52.9085 57.4373C51.7367 57.9212 51.3133 58.3084 51.1002 59.0906C50.9393 59.6817 48.6536 62.0656 48.0904 62.2297C47.4184 62.4257 47.3477 62.4758 47.2397 62.8325C47.0974 63.303 46.8557 63.5043 46.2471 63.6587C45.1165 63.9455 44.4459 64.7739 44.4177 65.9183C44.4102 66.2242 44.3706 66.6486 44.3296 66.8617C44.2665 67.1902 44.3385 67.2976 44.8044 67.5701C45.1065 67.7467 45.358 67.9487 45.3635 68.0189C45.3796 68.2274 43.7237 68.0727 43.0224 67.8004C42.2812 67.5123 41.4973 66.7931 41.1109 66.0465C40.9198 65.6772 40.7582 64.7167 40.5293 62.5916C40.1426 59.0014 39.6381 56.4254 39.2283 55.9485C39.0672 55.7612 38.6972 53.904 38.3997 53.7433C38.3997 53.7433 37.7338 52.4108 37.6599 53.7433C37.5859 55.0758 36.994 57.0005 36.994 57.0005C36.772 60.0355 36.9331 58.3655 36.402 62.2297C36.3651 62.4988 35.9259 66.8555 35.8841 67.1421C34.9963 69.3629 36.0321 68.5486 36.772 68.9187C37.5859 69.1408 37.6957 69.2526 38.4488 69.4766C39.9281 69.9166 41.8097 70.2866 43.6106 70.4917C45.9363 70.7566 51.3722 70.4148 54.0065 69.838C61.446 68.2091 67.484 64.7492 72.2908 59.3606C75.0278 56.2923 76.8316 53.3962 78.3786 49.5858C80.3669 44.6888 81.0664 40.1844 80.6863 34.7291C80.3736 30.2413 79.4603 26.6958 77.6074 22.7755C74.7906 16.816 69.8336 11.478 64.0217 8.14613C57.3295 4.30966 49.3323 2.88751 41.7541 4.18635ZM50.7116 6.15438C51.3239 6.35165 51.3234 6.60213 50.7104 6.6503C50.4454 6.67106 49.974 6.32671 49.9584 6.10108C49.9457 5.91839 49.9889 5.92148 50.7116 6.15438ZM47.027 6.97085C47.8138 7.31867 49.8886 9.36812 49.9206 9.82927C49.9322 9.99631 49.5608 10.4687 49.0019 10.9974C47.9399 12.0022 47.5963 12.6198 47.652 13.4236C47.6891 13.9579 47.6711 13.9806 47.1862 14.0143C46.4976 14.0621 45.4681 13.361 44.9365 12.4823L44.5175 11.7897L44.804 11.2006L45.0903 10.6115L43.8251 9.39908C43.1292 8.73224 42.6043 8.13998 42.6587 8.08297C42.7469 7.99055 44.9055 7.17693 45.6486 6.95603C46.218 6.78678 46.6203 6.79119 47.027 6.97085ZM42.6359 7.35533C42.9267 7.51234 42.9019 7.53453 41.8425 8.06785C40.6165 8.68494 40.0692 8.68451 40.2581 8.06658C40.4023 7.595 42.1254 7.07953 42.6359 7.35533ZM58.1007 7.85078C60.0478 8.57121 61.1592 9.47537 59.8499 9.27383C59.3043 9.18981 59.3146 9.20348 60.5846 10.2571C61.7804 11.2492 62.1071 11.6444 61.7517 11.6691C61.6726 11.6746 61.3816 11.5616 61.1049 11.418C60.7698 11.244 60.3412 11.1747 59.8207 11.2106C58.7217 11.2859 58.2099 11.0206 57.7292 10.1256C57.5093 9.7162 56.9751 9.03873 56.5421 8.62024C55.5065 7.61919 55.2837 7.26618 55.6235 7.16476C55.939 7.07051 56.1505 7.12908 58.1007 7.85078ZM62.9399 10.0827C70.7303 14.6246 76.1677 22.3307 77.9124 31.3023C78.2227 32.8988 78.491 36.773 78.4034 38.3932C78.3176 39.976 78.0017 42.3478 77.7062 43.6273C77.4119 44.9022 76.6102 47.2095 76.5298 47.014C76.4954 46.9304 76.6618 46.09 76.8997 45.1465C77.4519 42.9558 77.4074 41.8418 76.709 40.3603C76.3673 39.6355 76.1966 39.0163 76.0968 38.14C76.0206 37.4715 75.9107 36.8039 75.8523 36.6563C75.7506 36.3988 74.3266 35.855 73.8424 35.8886C73.7209 35.897 73.3038 36.2829 72.9153 36.746C72.2092 37.5877 71.173 38.2093 70.0174 38.4846C69.359 38.6413 68.1904 37.9702 67.2302 36.8839C66.8148 36.4138 66.1302 35.6971 65.7091 35.2911L64.9434 34.553L64.952 33.2678C64.96 32.0843 64.9262 31.9204 64.5238 31.1973C63.8221 29.9356 63.8386 28.1149 64.5673 26.4495C64.8798 25.7355 64.9235 25.4371 64.8571 24.4744C64.814 23.8506 64.836 23.1511 64.9059 22.9199C65.1134 22.2341 64.8919 21.8595 64.0957 21.5489C63.4535 21.2984 63.2988 21.1415 62.653 20.0849C62.2551 19.434 61.9606 18.8004 61.9982 18.6771C62.0359 18.5538 62.3896 18.2916 62.7842 18.0942C63.1789 17.8971 63.4972 17.6717 63.4918 17.5936C63.4658 17.2185 62.8743 16.6355 62.353 16.4712C61.6992 16.2651 61.5953 15.9456 61.8909 15.0508C61.9838 14.7693 62.0753 14.0854 62.0941 13.5312C62.1239 12.6491 62.1791 12.4798 62.5361 12.1753C62.7603 11.9837 62.9352 11.7008 62.9245 11.5465C62.9138 11.3921 62.5122 10.8822 62.032 10.413C61.5519 9.94396 61.1556 9.51506 61.1513 9.45991C61.1353 9.2478 62.0603 9.56987 62.9399 10.0827ZM53.0659 11.0264C53.2979 11.5254 52.0677 11.8065 51.6045 11.3603C51.2501 11.0191 51.3912 10.9053 52.242 10.8462C52.7634 10.81 52.9881 10.8592 53.0659 11.0264ZM59.0311 12.9404C60.699 13.8015 61.0303 14.0235 61.1415 14.3541C61.4438 15.2533 60.395 15.1731 59.7126 14.2449L59.2436 13.6068L59.1793 14.1011C59.0333 15.2219 59.0245 15.2273 58.2042 14.6978C57.9302 14.5209 57.9343 14.4901 58.2973 13.9919L58.6769 13.4709L58.1765 13.1084C57.2133 12.4106 57.7867 12.298 59.0311 12.9404Z" fill="#DCDCDC"/>
<path d="M0.9 78.7V86H3.5C5.3 86 6.15 85.15 6.15 83.95C6.15 82.45 4.75 82.2 4.75 82.2V82.15C4.75 82.15 5.8 81.9 5.8 80.65C5.8 79.5 5 78.7 3.25 78.7H0.9ZM2.4 82.9H3.5C4.25 82.9 4.6 83.2 4.6 83.8C4.6 84.4 4.25 84.7 3.5 84.7H2.4V82.9ZM3.25 80C3.9 80 4.25 80.3 4.25 80.8C4.25 81.3 3.9 81.6 3.25 81.6H2.4V80H3.25ZM9.05039 78.7H7.55039V86H9.05039V78.7ZM12.0012 82.35C12.0012 80.9 13.0012 79.9 14.3512 79.9C15.7012 79.9 16.7012 80.9 16.7012 82.35C16.7012 83.8 15.7012 84.8 14.3512 84.8C13.0012 84.8 12.0012 83.8 12.0012 82.35ZM18.2512 82.35C18.2512 80.2 16.6012 78.55 14.3512 78.55C12.1012 78.55 10.4512 80.2 10.4512 82.35C10.4512 84.5 12.1012 86.15 14.3512 86.15C16.6012 86.15 18.2512 84.5 18.2512 82.35ZM23.4953 82.35C23.4953 80.9 24.4953 79.9 25.9453 79.9C27.3453 79.9 27.8453 80.7 27.8453 80.7L28.3953 79.55C28.3953 79.55 27.5453 78.55 25.7453 78.55C23.5953 78.55 21.9453 80.2 21.9453 82.35C21.9453 84.5 23.5953 86.15 25.7453 86.15C27.3953 86.15 28.1953 85.2 28.1953 85.2V83.75H28.0453C28.0453 83.75 27.3453 84.8 25.9453 84.8C24.4953 84.8 23.4953 83.8 23.4953 82.35ZM30.5949 82.35C30.5949 80.9 31.5949 79.9 32.9449 79.9C34.2949 79.9 35.2949 80.9 35.2949 82.35C35.2949 83.8 34.2949 84.8 32.9449 84.8C31.5949 84.8 30.5949 83.8 30.5949 82.35ZM36.8449 82.35C36.8449 80.2 35.1949 78.55 32.9449 78.55C30.6949 78.55 29.0449 80.2 29.0449 82.35C29.0449 84.5 30.6949 86.15 32.9449 86.15C35.1949 86.15 36.8449 84.5 36.8449 82.35ZM44.5938 78.7H43.0938V83.5L39.6938 78.7H38.2438V86H39.7438V81.2L43.1438 86H44.5938V78.7ZM48.398 78.55C46.948 78.55 46.048 79.45 46.048 80.55C46.048 82.85 49.398 82.75 49.398 83.95C49.398 84.45 48.998 84.8 48.178 84.8C47.098 84.8 46.398 84.05 46.398 84.05L45.898 85.25C45.898 85.25 46.748 86.15 48.248 86.15C49.948 86.15 50.948 85.25 50.948 83.9C50.948 81.7 47.598 81.65 47.598 80.6C47.598 80.2 47.948 79.9 48.548 79.9C49.448 79.9 50.098 80.5 50.098 80.5L50.598 79.3C50.598 79.3 49.848 78.55 48.398 78.55ZM55.2477 86.15C57.1977 86.15 58.3477 85 58.3477 83.15V78.7H56.8477V83.15C56.8477 84.2 56.2477 84.8 55.2477 84.8C54.2477 84.8 53.6477 84.2 53.6477 83.15V78.7H52.1477V83.15C52.1477 85 53.2977 86.15 55.2477 86.15ZM61.5504 78.7H60.0504V86H64.5004V84.65H61.5504V78.7ZM64.2465 78.7V80.05H66.3965V86H67.8965V80.05H70.0465V78.7H64.2465ZM72.8004 78.7H71.3004V86H72.8004V78.7ZM80.9512 78.7H79.4512V83.5L76.0512 78.7H74.6012V86H76.1012V81.2L79.5012 86H80.9512V78.7ZM86.1555 78.55C84.0055 78.55 82.3555 80.2 82.3555 82.35C82.3555 84.5 84.0055 86.15 86.1555 86.15C88.3055 86.15 89.3055 84.75 89.3055 84.75V81.8H86.2055L85.8555 83.15H87.9055V84.2C87.9055 84.2 87.3555 84.8 86.3055 84.8C84.9055 84.8 83.9055 83.8 83.9055 82.35C83.9055 80.9 84.9055 79.9 86.3555 79.9C87.6555 79.9 88.3555 80.7 88.3555 80.7L88.8555 79.55C88.8555 79.55 87.9555 78.55 86.1555 78.55Z" fill="white"/>
</svg>
