<svg width="54" height="54" viewBox="0 0 54 54" fill="none" xmlns="http://www.w3.org/2000/svg">
<path d="M27 0.333252L27.864 0.335918L28.712 0.346586L30.3547 0.391919L31.152 0.426586L32.696 0.517252L34.1707 0.639919C46.9307 1.87725 52.1227 7.06925 53.36 19.8293L53.4827 21.3039L53.5733 22.8479C53.5867 23.1093 53.6 23.3759 53.608 23.6453L53.6533 25.2879L53.6667 26.9999L53.6533 28.7119L53.608 30.3546L53.5733 31.1519L53.4827 32.6959L53.36 34.1706C52.1227 46.9306 46.9307 52.1226 34.1707 53.3599L32.696 53.4826L31.152 53.5733C30.8907 53.5866 30.624 53.5999 30.3547 53.6079L28.712 53.6533L27 53.6666L25.288 53.6533L23.6453 53.6079L22.848 53.5733L21.304 53.4826L19.8293 53.3599C7.06934 52.1226 1.87734 46.9306 0.64001 34.1706L0.517344 32.6959L0.426677 31.1519C0.413704 30.8862 0.402148 30.6204 0.39201 30.3546L0.346677 28.7119C0.338677 28.1519 0.333344 27.5813 0.333344 26.9999L0.33601 26.1359L0.346677 25.2879L0.39201 23.6453L0.426677 22.8479L0.517344 21.3039L0.64001 19.8293C1.87734 7.06925 7.06934 1.87725 19.8293 0.639919L21.304 0.517252L22.848 0.426586C23.1093 0.413252 23.376 0.399919 23.6453 0.391919L25.288 0.346586C25.848 0.338586 26.4187 0.333252 27 0.333252ZM23.0293 19.3733C22.4706 19.0407 21.8096 18.9237 21.1707 19.0443C20.5318 19.1649 19.9589 19.5148 19.5599 20.0281C19.1608 20.5415 18.9631 21.183 19.0039 21.8319C19.0447 22.4809 19.3212 23.0925 19.7813 23.5519L23.2267 26.9999L19.7813 30.4479L19.56 30.6986C19.1456 31.2346 18.9507 31.9082 19.0149 32.5827C19.0792 33.2571 19.3978 33.8818 19.9059 34.3299C20.4141 34.778 21.0738 35.0159 21.751 34.9952C22.4282 34.9745 23.0721 34.6968 23.552 34.2186L27 30.7733L30.448 34.2186L30.6987 34.4399C31.2347 34.8544 31.9083 35.0492 32.5827 34.985C33.2572 34.9207 33.8819 34.6022 34.33 34.094C34.7781 33.5858 35.016 32.9261 34.9953 32.2489C34.9746 31.5717 34.6969 30.9278 34.2187 30.4479L30.7733 26.9999L34.2187 23.5519L34.44 23.3013C34.8544 22.7653 35.0493 22.0916 34.9851 21.4172C34.9208 20.7427 34.6023 20.118 34.0941 19.6699C33.5859 19.2218 32.9262 18.984 32.249 19.0046C31.5718 19.0253 30.9279 19.303 30.448 19.7813L27 23.2266L23.552 19.7813L23.3013 19.5599L23.0293 19.3733Z" fill="#FAFAFA"/>
</svg>
